<svg xmlns="http://www.w3.org/2000/svg" width="68.519" height="72" viewBox="0 0 68.519 72">
  <g id="Group_6156" transform="translate(166.049 -404.48)">
    <path id="Path_12397" d="M-130.076,404.51a29.234,29.234,0,0,1,6.339.909c13.121,3.366,21.77,11.549,25.972,24.449.541,1.622.1,2.31-1.548,2.777-3.759,1.057-6.659-.27-8.625-4.1a27.564,27.564,0,0,0-8.305-9.927,26.54,26.54,0,0,0-38.946,8.993,18.925,18.925,0,0,1-1.72,2.875,6.947,6.947,0,0,1-7.986,1.99c-1.253-.541-1.351-1.45-.983-2.629a35.272,35.272,0,0,1,18.994-22.016,33.32,33.32,0,0,1,10.615-3.047,37.207,37.207,0,0,1,6.192-.27Z" transform="translate(0.016 0)" fill="#e5e4e4"/>
    <path id="Path_12401" d="M-131.755,610.523A34.937,34.937,0,0,1-165.639,585.9c-.762-2.383-.319-3.071,2.162-3.489,3.686-.614,6,.614,7.937,4.4a26.961,26.961,0,0,0,10,10.983,26.541,26.541,0,0,0,37.152-10.173c.393-.762.786-1.523,1.253-2.261a6.923,6.923,0,0,1,8.281-2.678c1.3.491,1.6,1.327,1.179,2.654-4.349,13.146-13.219,21.377-26.685,24.6a22.231,22.231,0,0,1-3.587.565C-129.2,610.6-130.478,610.523-131.755,610.523Z" transform="translate(-0.049 -134.069)" fill="#e5e4e4"/>
    <path id="Path_12402" d="M-65.859,503.25c-5.185,6.88-18.158,10.271-26.807,2.408-7.912-7.15-8.281-19.854-.786-27.225a18.754,18.754,0,0,1,27.667,1.179c-1.941,3.661-5.037,4.742-8.649,2.752-3.686-2.015-7.3-2.58-11.106-.467-4.669,2.6-6.708,9.534-4.325,14.743a10.5,10.5,0,0,0,13.244,5.209,15.452,15.452,0,0,0,2.875-1.376,4.1,4.1,0,0,1,5.307.344C-67.555,501.555-66.769,502.415-65.859,503.25Z" transform="translate(-50.686 -51.612)" fill="#e5e4e4"/>
  </g>
</svg>
